<?xml version="1.0" encoding="UTF-8" standalone="no"?>
<!-- Created with Inkscape (http://www.inkscape.org/) -->

<svg
   version="1.1"
   id="svg1159"
   width="379"
   height="129"
   viewBox="0 0 379 129"
   sodipodi:docname="logo.svg"
   inkscape:version="1.2.1 (9c6d41e410, 2022-07-14)"
   xmlns:inkscape="http://www.inkscape.org/namespaces/inkscape"
   xmlns:sodipodi="http://sodipodi.sourceforge.net/DTD/sodipodi-0.dtd"
   xmlns="http://www.w3.org/2000/svg"
   xmlns:svg="http://www.w3.org/2000/svg">
  <defs
     id="defs1163" />
  <sodipodi:namedview
     id="namedview1161"
     pagecolor="#ffffff"
     bordercolor="#666666"
     borderopacity="1.0"
     inkscape:showpageshadow="2"
     inkscape:pageopacity="0.0"
     inkscape:pagecheckerboard="0"
     inkscape:deskcolor="#d1d1d1"
     showgrid="false"
     inkscape:zoom="2.0659631"
     inkscape:cx="189.5"
     inkscape:cy="64.376756"
     inkscape:window-width="1280"
     inkscape:window-height="757"
     inkscape:window-x="0"
     inkscape:window-y="0"
     inkscape:window-maximized="1"
     inkscape:current-layer="g1165" />
  <g
     inkscape:groupmode="layer"
     inkscape:label="Image"
     id="g1165">
    <path
       style="fill:#2c1c67;stroke:none"
       d="M 0.4712878,107.76097 H 109.47129 V 91.760973 c -7.158,4.8895 -13.061802,10.410997 -22.000002,11.699997 -6.3637,0.917 -12.9085,0.229 -19,-1.729 -5.3973,-1.735 -9.9918,-4.622497 -13.6705,-8.985697 -3.5144,-4.1683 -5.7983,-9.5375 -6.2361,-14.9853 -1.1049,-13.7467 6.069,-28.0366 18.9066,-33.8148 16.1341,-7.262 38.045002,1.2548 40.698002,19.8148 1.621,11.3408 -16.158902,37.339997 -25.698002,21 -2.197,1.597 -4.3783,3.4481 -7.0039,4.294 -19.903,6.4118 -18.4696,-36.6541 3.0039,-34.0224 3.4188,0.419 6.2105,2.9162 9,4.7284 l 7,-4 -5,28 c 12.543002,-1.3969 17.146002,-16.9998 10.994602,-26.9961 -5.030702,-8.1747 -15.917802,-11.1934 -24.994602,-9.6783 -21.0327,3.5109 -31.3018,35.7825 -11,47.5888 7.9473,4.621597 22.7216,4.831297 31,1.027 5.123002,-2.3544 8.116002,-6.4978 14.000002,-6.9414 v -64 c 0,-5.4675 2.462,-18.9909695 -1.028,-23.3966095 -1.863,-2.3529 -6.355,-1.60222 -8.972002,-1.60339 h -25 c -4.7887,0 -14.2925,-1.81383 -18.3627,1.02778 -7.3522,5.133 -12.871,22.9458195 -16.8842,30.9722195 -12.6326,25.2651 -27.8997,49.9311 -38.7531002,75.999997 M 196.47129,49.760973 c 6.703,1.0689 6,6.3158 6,12 10e-4,10.66 -0.203,21.3436 0.08,32 0.154,5.785797 0.435,10.640997 -6.08,11.999997 v 3 l 22,-1 v -1 c -8.524,-3.881 -7,-10.755997 -7,-18.999997 v -45 c -5.266,0.5278 -12.148,2.2876 -15,7 m 129.145,-5.9282 c -5.451,2.8927 -0.457,10.6696 4.421,7.7052 4.598,-2.795 0.505,-10.3192 -4.421,-7.7052 m -250.104902,16.6821 c -9.5672,3.4139 -11.3337,27.7119 0.956,23.4845 10.3584,-3.563 12.3955,-28.2489 -0.956,-23.4845 m 44.959902,10.2461 c 9.21,3.4574 12.103,33.187997 1,34.999997 v 3 h 21 v -3 c -11.601,-1.849 -10.795,-34.320697 2.999,-34.624197 11.663,-0.2567 12.008,32.883197 1.001,34.624197 v 3 h 22 c -2.964,-4.787 -6.873,-5.46 -6.995,-11.999997 -0.075,-3.9966 -0.013,-8.0026 -0.005,-12 0.013,-6.5287 6.659,-19.4155 14.566,-11.5656 6.969,6.918 3.709,29.798597 -4.566,33.565597 v 1 l 22,1 v -3 c -13.693,-2.855 3.086,-52.230497 -23.985,-39.582597 -3.387,1.5823 -6.008,4.4323 -9.015,6.5826 -4.21,-12.2446 -18.751,-8.2904 -24,1 h -1 l 1,-8 c -5.452,-1.1326 -11.733,1.5525 -16,5 m 118,-5.4676 c -25.549,6.0854 -17.701,50.285597 9,43.935597 26.047,-6.196 18.58,-50.504697 -9,-43.935597 m 42,27.4676 v 1 c -5.644,3.5772 -8.921,9.051997 -3,13.999997 v 1 c -8.305,5.978 -10.466,14.829 1,18.426 11.306,3.546 30.788,0.773 33.424,-13.426 2.313,-12.464 -13.715,-11.81 -21.424,-12.015 -2.404,-0.064 -10.079,-0.513 -8.168,-4.802097 1.738,-3.9031 9.798,-1.8564 13.168,-2.7408 10.557,-2.7706 11.692,-12.3271 10,-21.4421 4.176,-0.1371 6.272,-0.6381 7,-5 -9.037,0 -19.281,-4.8823 -28,-2.3619 -13.207,3.8178 -15.324,20.1851 -4,27.3619 m 36,-21 c 10.96,0.8361 10.536,31.233997 1,33.999997 v 3 l 21,-1 v -1 c -12.041,-5.583 -7,-30.559797 -7,-41.999997 -5.172,0.7747 -12.006,2.4679 -15,7 m 62,19 c -6.773,7.1479 -14.674,17.018997 -23.351,4.9846 -4.69,-6.505 -5.937,-28.8671 7.332,-26.6081 5.592,0.9519 5.109,9.3272 10.994,9.3272 3.775,0 4.914,-3.5772 3.539,-6.6111 -4.04,-8.9111 -17.478,-8.6329 -24.421,-3.858 -12.036,8.2775 -12.632,29.4029 -1.078,38.346397 11.195,8.665 29.056,-1.567 26.985,-15.580997 m -90.957,-22.5471 c 11.092,-2.7152 14.74,21.2489 4.772,23.2531 -11.853,2.3832 -15.303,-20.6749 -4.772,-23.2531 m -48.039,0.9815 c 16.767,-4.5343 21.669,32.539597 6.995,36.116597 -15.496,3.777 -21.39,-32.223797 -6.995,-36.116597 m 41.325,40.168597 c 4.531,-2.038 19.991,-0.852 24.428,1.291 5.051,2.438 0.392,8.213 -2.776,9.942 -5.904,3.222 -16.081,2.993 -21.922,-0.289 -4.409,-2.476 -4.693,-8.71 0.27,-10.944 z"
       id="path1640" />
  </g>
</svg>
